<svg xmlns="http://www.w3.org/2000/svg" xmlns:xlink="http://www.w3.org/1999/xlink" width="2000" zoomAndPan="magnify" viewBox="0 0 1500 1499.999933" height="2000" preserveAspectRatio="xMidYMid meet" version="1.0"><defs><clipPath id="8600632b80"><path d="M 176 291.796875 L 1114 291.796875 L 1114 1208.296875 L 176 1208.296875 Z M 176 291.796875 " clip-rule="nonzero"/></clipPath></defs><g clip-path="url(#8600632b80)"><path fill="#f6f6f6" d="M 653.835938 853.253906 L 350.90625 624.238281 L 350.90625 1208.164062 L 176.558594 1208.164062 L 176.558594 291.828125 L 465.980469 510.636719 L 466.007812 510.636719 L 653.835938 652.644531 L 1113.617188 298.441406 L 1113.617188 505.632812 L 786.492188 752.964844 L 746.269531 783.378906 Z M 938.761719 945.175781 L 939.269531 1208.191406 L 1113.617188 1208.191406 L 1113.109375 813.367188 Z M 938.761719 945.175781 " fill-opacity="1" fill-rule="nonzero"/></g><path fill="#fa281f" d="M 1058.074219 600.128906 L 653.835938 905.769531 L 395.511719 710.449219 L 395.511719 911.058594 L 653.835938 1106.378906 L 1323.410156 600.128906 Z M 1058.074219 600.128906 " fill-opacity="1" fill-rule="nonzero"/></svg>